<svg id="SvgjsSvg1001" width="288" height="288" xmlns="http://www.w3.org/2000/svg" version="1.1" xmlns:xlink="http://www.w3.org/1999/xlink" xmlns:svgjs="http://svgjs.com/svgjs"><defs id="SvgjsDefs1002"></defs><g id="SvgjsG1008" transform="matrix(1,0,0,1,0,0)"><svg xmlns="http://www.w3.org/2000/svg" width="288" height="288" enable-background="new 0 0 96.666 96.666" viewBox="0 0 96.666 96.666"><path d="M60.666,6H36v24.666h24.666V6z M56.666,26.666H40V10h16.666V26.666z M36,90.666h24.666V66H36V90.666z M40,70h16.666v16.666
		H40V70z M0,90.666h24.666V66H0V90.666z M4,70h16.666v16.666H4V70z M72,66v24.666h24.666V66H72z M92.666,86.666H76V70h16.666V86.666
		z M15.31,63.066h-4.454V46.4h1.478v-0.067h33.499V35h5v11.333h33.501V46.4h2.227v16.667h-4.455V51.333H50.833v11.333h-5V51.333
		H15.31V63.066z" fill="#92d050" class="color000 svgShape"></path></svg></g></svg>